<?xml version="1.0" encoding="UTF-8" standalone="no"?><svg xmlns="http://www.w3.org/2000/svg" viewBox="0 0 25 25"><defs><style>.cls-1{fill:#525967;}.cls-2{fill:#454b57;}.cls-3{fill:#0acf83;}.cls-4{fill:#a259ff;}.cls-5{fill:#f24e1e;}.cls-6{fill:#ff7262;}.cls-7{fill:#1abcfe;}.cls-8{fill:none;}</style></defs><title>Figma_Social_Interface</title><g id="Layer_2" data-name="Layer 2"><g id="Layer_1_copy" data-name="Layer 1 copy"><g id="Figma_icon" data-name="Figma icon"><g id="ads_manager" data-name="ads manager"><rect class="cls-1" x="5.64" y="5.64" width="13.72" height="13.72" rx="2" ry="2" fill="#525967"/><path class="cls-2" d="M17.36 6.24a1.4 1.4 0 0 1 1.4 1.4v9.72a1.4 1.4 0 0 1-1.4 1.4H7.64a1.4 1.4 0 0 1-1.4-1.4V7.64a1.4 1.4 0 0 1 1.4-1.4h9.72m0-.6H7.64a2 2 0 0 0-2 2v9.72a2 2 0 0 0 2 2h9.72a2 2 0 0 0 2-2V7.64a2 2 0 0 0-2-2z" fill="#454b57"/><path id="path0_fill" data-name="path0 fill" class="cls-3" d="M10.79 17.63a1.71 1.71 0 0 0 1.71-1.71v-1.71h-1.71a1.71 1.71 0 1 0 0 3.42z" fill="#0acf83"/><path id="path1_fill" data-name="path1 fill" class="cls-4" d="M9.08 12.5a1.71 1.71 0 0 1 1.71-1.71h1.71v3.42h-1.71a1.71 1.71 0 0 1-1.71-1.71z" fill="#a259ff"/><path id="path1_fill-2" data-name="path1 fill" class="cls-5" d="M9.08 9.08a1.71 1.71 0 0 1 1.71-1.71h1.71v3.42h-1.71a1.71 1.71 0 0 1-1.71-1.71z" fill="#f24e1e"/><path id="path2_fill" data-name="path2 fill" class="cls-6" d="M12.5 7.38h1.71a1.71 1.71 0 1 1 0 3.42H12.5z" fill="#ff7262"/><path id="path3_fill" data-name="path3 fill" class="cls-7" d="M15.92 12.5a1.71 1.71 0 1 1-1.71-1.71 1.71 1.71 0 0 1 1.71 1.71z" fill="#1abcfe"/></g><path class="cls-8" fill="none" d="M0 0h25v25H0z"/></g></g></g><metadata><rdf:RDF xmlns:rdf="http://www.w3.org/1999/02/22-rdf-syntax-ns#" xmlns:rdfs="http://www.w3.org/2000/01/rdf-schema#" xmlns:dc="http://purl.org/dc/elements/1.1/"><rdf:Description about="https://iconscout.com/legal#licenses" dc:title="figma,social,interface" dc:description="figma,social,interface" dc:publisher="Iconscout" dc:date="2018-02-01" dc:format="image/svg+xml" dc:language="en"><dc:creator><rdf:Bag><rdf:li>Bohdan Kononets</rdf:li></rdf:Bag></dc:creator></rdf:Description></rdf:RDF></metadata></svg>